<svg width="1760" height="705" viewBox="0 0 1760 705" fill="none" xmlns="http://www.w3.org/2000/svg">
<g clip-path="url(#clip0_212_16580)" filter="url(#filter0_f_212_16580)">
<path opacity="0.15" d="M1534.19 307.88C1567.7 344.97 1594.88 409.451 1544.8 454.973C1539.63 459.666 1491.18 502.248 1418.3 496.96C1329.54 490.52 1311.34 420.812 1213.38 402.716C1107.3 383.119 1045.04 449.425 993.231 429.056C931.971 404.97 924.451 275.071 1035.33 219.396C1168.91 152.326 1444.08 208.151 1534.19 307.88Z" fill="#EBC136"/>
<path opacity="0.15" d="M699.245 499.639C730.307 480.569 764.155 442.148 743.134 403.285C740.966 399.278 720.262 362.654 671.679 353.834C612.505 343.09 583.162 386.52 515.092 381.996C441.375 377.096 417.688 322.301 378.971 327.114C333.189 332.806 295.627 418.21 353.514 474.149C423.248 541.538 615.723 550.917 699.245 499.639Z" fill="#EBC136"/>
<path opacity="0.15" d="M881.575 391.89C866.187 370.799 850.464 330.221 863.947 292.859C865.337 289.007 878.519 253.857 904.878 248.297C936.983 241.526 950.013 286.799 986.481 286.823C1025.97 286.849 1041.82 233.774 1062.12 241.155C1086.13 249.883 1101.04 337.57 1066.94 389.508C1025.87 452.075 922.953 448.602 881.575 391.89Z" fill="#EBC136"/>
<path opacity="0.15" d="M869.467 344.802C886.284 334.124 904.622 312.633 893.276 290.936C892.107 288.699 880.931 268.254 854.654 263.363C822.649 257.407 806.745 281.693 769.923 279.218C730.047 276.538 717.27 245.943 696.321 248.661C671.55 251.876 651.171 299.62 682.448 330.828C720.128 368.423 824.247 373.514 869.467 344.802Z" fill="#EBC136"/>
<path opacity="0.15" d="M1593.62 318.365C1611.76 302.046 1631.7 269.494 1619.95 237.192C1618.74 233.861 1607.14 203.43 1579.17 196.595C1545.09 188.269 1527.7 224.965 1488.42 221.946C1445.89 218.678 1432.75 173.066 1410.34 177.534C1383.83 182.818 1361.28 254.751 1394.15 300.934C1433.76 356.569 1544.86 362.244 1593.62 318.365Z" fill="#8047F8"/>
<path opacity="0.15" d="M1605.61 447.852C1619.71 458.804 1635.15 480.725 1625.84 502.622C1624.88 504.88 1615.7 525.511 1593.82 530.261C1567.16 536.047 1553.73 511.312 1523.03 513.533C1489.79 515.938 1479.35 546.841 1461.86 543.922C1441.17 540.471 1423.84 491.932 1449.71 460.552C1480.88 422.749 1567.69 418.404 1605.61 447.852Z" fill="#8047F8"/>
<path opacity="0.15" d="M406.937 206.892C419.506 228.616 431.932 270.056 419.695 307.492C418.433 311.351 406.5 346.558 384.055 351.502C356.717 357.524 346.675 311.405 315.792 310.442C282.347 309.4 267.765 362.665 250.732 354.678C230.59 345.234 219.883 256.175 249.9 204.53C286.06 142.315 373.139 148.476 406.937 206.892Z" fill="#EBC136"/>
<path opacity="0.15" d="M1048.51 502.947C1022.62 483.727 997.462 445.18 1023.93 406.528C1026.65 402.543 1052.43 366.123 1099.6 357.62C1157.05 347.262 1177.11 390.78 1241.84 386.683C1311.94 382.246 1343.66 327.712 1379.2 332.753C1421.23 338.713 1441.76 424.166 1377.71 479.631C1300.55 546.449 1118.11 554.627 1048.51 502.947Z" fill="#EBC136"/>
<path opacity="0.15" d="M974.922 469.538C996.564 450.513 1019.25 413.904 1001.97 380.187C1000.19 376.71 983.247 344.989 947.43 339.962C903.804 333.84 884.654 374.687 834.868 374.695C780.953 374.704 760.92 326.808 732.979 333.46C699.939 341.327 676.942 420.444 721.931 467.321C776.129 523.792 916.728 520.695 974.922 469.538Z" fill="#8047F8"/>
<path opacity="0.15" d="M1022.47 211.004C1063.02 221.666 1106.08 241.465 1075.34 258.257C1072.17 259.989 1041.99 275.762 976.11 277.009C895.863 278.528 859.181 256.67 767.369 254.784C667.943 252.742 632.601 276.767 580.852 272.269C519.66 266.95 474.602 225.145 556 202.591C654.058 175.42 913.443 182.335 1022.47 211.004Z" fill="#8047F8"/>
<path opacity="0.15" d="M355.139 452.866C374.225 430.714 394.35 388.381 379.454 349.978C377.918 346.018 363.31 309.899 331.98 304.685C293.82 298.335 276.761 345.475 233.163 346.25C185.949 347.089 168.744 292.467 144.229 300.526C115.24 310.056 94.5421 401.145 133.608 454.214C180.671 518.144 303.816 512.431 355.139 452.866Z" fill="#8047F8"/>
</g>
<defs>
<filter id="filter0_f_212_16580" x="0" y="-90" width="1760" height="864" filterUnits="userSpaceOnUse" color-interpolation-filters="sRGB">
<feFlood flood-opacity="0" result="BackgroundImageFix"/>
<feBlend mode="normal" in="SourceGraphic" in2="BackgroundImageFix" result="shape"/>
<feGaussianBlur stdDeviation="80" result="effect1_foregroundBlur_212_16580"/>
</filter>
<clipPath id="clip0_212_16580">
<rect width="1440" height="544" fill="white" transform="translate(160 70)"/>
</clipPath>
</defs>
</svg>
